<?xml version="1.0" encoding="UTF-8"?>
<svg id="Layer_1" data-name="Layer 1" xmlns="http://www.w3.org/2000/svg" viewBox="0 0 248.49 81.09">
  <defs>
    <style>
      .cls-1 {
        fill:white;
      }

      .cls-2 {
        fill: #a67c52;
      }

      .cls-3 {
        fill: none;
        stroke: #333;
        stroke-linecap: round;
        stroke-miterlimit: 10;
        stroke-width: 1.28px;
      }
    </style>
  </defs>
  <g>
    <g>
      <path class="cls-1" d="m111.26,57.53c.05.19.05.69,0,1.53,0,.09,0,.42.04.96.02.56.03.88.03.96-.04.35-.19.62-.46.8-.26.18-.48.28-.66.3-.18.03-.49.04-.93.04-1.94-.05-4.84-.06-8.69-.06-2.83.05-4.26.05-4.31,0-.53,0-.9-.09-1.09-.27-.2-.18-.3-.57-.3-1.19V17.36c0-.67.15-1.08.46-1.27.18-.13.7-.19,1.59-.19h13c.84.05,1.28.35,1.32.92.05.18.06.78.06,1.79,0,1.1-.02,1.72-.06,1.85-.05.22-.12.39-.23.5s-.27.19-.46.23c-.2.05-.38.08-.53.1-.16.03-.37.03-.63,0-.27-.02-.44-.03-.54-.03h-6.43c-.92,0-1.48.06-1.66.19-.31.22-.47.67-.47,1.32v12.6c.09.44.31.71.67.8.14.09.68.14,1.66.14h4.25c.49.04.78.29.86.72.09.14.11.82.06,2.06,0,1.1-.02,1.75-.06,1.92-.08.35-.37.57-.86.66h-4.25c-1.02,0-1.61.05-1.79.14-.35.22-.54.64-.54,1.26v12.86c.18.49.58.73,1.2.73h8.35c.83.05,1.3.33,1.39.86Z"/>
      <path class="cls-1" d="m134.13,60.58c-.09-.19-.09-.47-.19-.76,0-.19-.09-.47-.09-.57-.19-.85-.28-1.52-.38-1.89-.57-3.03-1.14-5.68-1.61-8.15-.19-1.04-.38-2.37-.76-4.07-.09-.19-.09-.57-.19-1.04-.09-.47-.19-.85-.19-1.14-.19-.66-.19-1.23,0-1.61.19-.28.57-.76,1.14-1.33.47-.47.85-.95,1.04-1.33.09-.28.09-.95.09-1.89v-16.67c0-.66-.09-1.14-.28-1.52-.09-.19-.57-.66-1.33-1.52-.38-.38-.76-.66-1.04-.85-.19-.09-.47-.19-.85-.28-.28,0-.57-.09-.85-.09-.19,0-.57,0-.95.09h-9.09c-1.04,0-1.61.09-1.8.38-.09.09-.09.76-.09,1.71v41.77c0,1.04,0,1.61.09,1.8.19.28.57.47,1.33.47h1.99c.95,0,1.51-.09,1.61-.28.19-.19.28-.76.28-1.8v-16.58c0-.57-.09-.95,0-1.04,0-.19,0-.38.09-.47.28-.28.85-.38,1.61-.19.47.09.76.38.95.76,0,.09.19.76.38,1.89.09.28.09.57.19,1.04.09.38.19.76.19.95.38,1.8.66,3.22.85,4.07.19.95.38,2.27.76,4.17.38,1.89.66,3.22.85,4.07.19,1.33.28,1.99.28,2.08.09.57.28.85.57,1.04.19.19.66.28,1.33.28h2.37c.28.09.57.09.66,0,.19,0,.38,0,.57-.09.19,0,.28-.09.38-.19.09-.19.19-.38.19-.57-.09-.19-.09-.47-.09-.66Zm-6.44-24.72c-.09.28-.38.47-.95.47h-2.18c-1.23,0-1.89,0-2.08-.09-.09,0-.19-.09-.28-.09,0-.09-.09-.19-.09-.28s0-.19-.09-.19v-11.75c0-1.14,0-1.8.09-1.99.19-.38.66-.57,1.32-.57h3.89c.19.09.38.47.38.95v13.55Z"/>
      <path class="cls-1" d="m155.89,58.72v2.26c-.05.53-.22.89-.53,1.06-.18.13-.75.19-1.72.19h-12.07c-.89,0-1.42-.06-1.59-.19-.31-.18-.46-.6-.46-1.26v-2.32c0-.84.18-1.35.53-1.53.22-.09.45-.13.69-.13s.55,0,.93.03c.37.03.6.04.69.04h12.4c.49,0,.82.13,1,.4.08.22.13.7.13,1.45Z"/>
      <path class="cls-1" d="m155.63,52.06c-.09-.28-.09-.85-.28-1.52-.09-.66-.09-1.04-.09-1.14-.09-.38-.28-2.18-.76-5.21-.19-1.14-.47-2.94-.76-5.3-.38-2.46-.66-4.26-.85-5.49-.19-1.23-.38-2.94-.76-5.3-.28-2.37-.57-4.17-.76-5.4-.57-3.6-.76-5.4-.76-5.4-.19-.76-.38-1.14-.66-1.23h-4.55c-.09,0-.19.09-.28.09-.09.09-.09.19-.19.28,0,.19-.09.28-.09.38v.66c-.19.85-.38,2.65-.85,5.3,0,.47-.47,3.98-1.52,10.51-.66,5.02-1.23,8.52-1.51,10.61-.38,2.75-.66,4.55-.76,5.49,0,0-.19.85-.38,2.46-.19,1.14-.09,1.71.09,1.89.09.09.19.19.38.19.19.09.38.09.47.09h2.75c.28,0,.47-.09.76-.09.47-.19.76-.66.85-1.42v-.19c0-.28,0-.47.09-.57,0-.09.09-.19.19-.28.19-.09.28-.19.57-.19h2.65c.76,0,1.14,0,1.23.09.19,0,.28.28.38.66.19.95.38,1.52.66,1.7.19.09.28.19.47.19.28,0,.47.09.57.09h2.75c.28-.09.47-.09.76-.19.28-.19.28-.76.19-1.8Zm-6.25-6.63c0,.28-.19.47-.57.47h-2.56c-.19-.19-.28-.47-.19-.95.19-1.7.28-2.94.38-3.6.47-3.32.76-5.3.85-6.25.09-1.04.19-1.52.19-1.61v-.19c.09-.47.28-.57.38-.19,0,.09.09.57.19,1.7.09.57.19,1.04.28,1.52.09.76.19,1.99.38,3.6.28,1.52.38,2.46.38,2.56,0,.38.09.85.19,1.61.09.85.19,1.23.09,1.33Z"/>
    </g>
    <g>
      <path class="cls-1" d="m216.42,16.39c.09.22.06.8-.06,1.73-.05.48-.11,1.21-.19,2.18-.09.97-.16,1.53-.2,1.66-.18,1.86-.44,4.45-.8,7.76-.05.44-.57,5.66-1.59,15.65-.27,2.83-.53,5.43-.8,7.82-.4,4.07-.62,6.44-.67,7.09-.04,1.02-.35,1.59-.92,1.73-.13.05-.67.06-1.59.06h-3.71c-.93,0-1.46-.02-1.59-.06-.62-.14-.95-.73-1-1.79,0-.08-.24-2.52-.73-7.29-.35-3.8-.62-6.39-.8-7.76,0-.05,0-.2-.03-.5-.03-.29-.04-.52-.04-.69-.09-.27-.18-.4-.27-.4-.04,0-.07.06-.09.2-.03.13-.04.28-.04.43,0,.16-.02.39-.06.69-.05.67-.11,1.35-.2,2.06-.08.97-.22,2.4-.4,4.27-.18,1.88-.29,3.04-.33,3.48-.04.36-.1.95-.19,1.79-.09.84-.16,1.5-.2,1.99-.08.75-.15,1.35-.19,1.79-.09.8-.22,1.29-.4,1.46-.18.18-.64.29-1.4.33h-1.91c-2.48,0-3.74-.02-3.78-.06-.22,0-.41-.05-.56-.14-.16-.08-.28-.18-.36-.26-.09-.09-.17-.24-.23-.46-.07-.22-.1-.38-.1-.47,0-.08,0-.27-.04-.56-.02-.29-.03-.45-.03-.5-.05-.31-.09-.73-.14-1.26-.05-.54-.08-1.01-.13-1.43-.05-.42-.09-.82-.13-1.22-1.33-12.95-2.39-23.37-3.18-31.23-.05-.44-.11-1.11-.2-1.99-.09-.89-.16-1.53-.19-1.92,0-.27-.04-.64-.1-1.13-.06-.49-.12-.92-.17-1.32-.05-.4-.06-.78-.06-1.13s.12-.62.36-.8c.24-.18.46-.28.67-.31.19-.02.52-.03.96-.03h1.66c.7,0,1.17.13,1.39.4.18.18.3.51.33.99.05.22.09.55.14,1,.04.44.06.7.06.8.27,2.48.4,3.76.4,3.85.35,3.27.62,5.87.8,7.83.13,1.37.37,3.81.73,7.33.35,3.51.64,6.22.86,8.12,0,.22,0,.49.03.82.03.33.05.65.07.93.02.29.06.56.09.82.05.4.11.6.2.6.08,0,.16-.22.19-.67,0-.18.2-2.28.6-6.3.27-2.43.8-7.65,1.59-15.65.4-3.76.67-6.3.8-7.62,0-.13,0-.29.04-.46.02-.18.03-.33.03-.46,0-.14,0-.29.04-.46.02-.18.03-.33.03-.47,0-.04,0-.15.04-.32.02-.18.03-.32.03-.43s.04-.22.1-.33c.06-.11.17-.18.3-.23.05-.05.22-.05.54,0h4.44c.09.09.16.22.2.4.04.18.06.56.06,1.13.04.4.11,1.03.19,1.89.09.86.16,1.52.2,1.96.08.75.18,1.58.26,2.48.09.91.18,1.84.27,2.79.09.94.18,1.78.27,2.48.97,9.33,1.5,14.55,1.59,15.65,0,.18.05.69.13,1.55.09.87.16,1.54.2,2.03.13.62.24.95.32,1,.05,0,.07-.18.07-.54v-.23c0-.06,0-.13.03-.19.03-.07.04-.15.04-.23v-.2c.05-.44.11-1.1.19-1.99.18-1.32.31-2.61.4-3.85.93-9.02,1.46-14.21,1.59-15.58.44-4.25.71-6.87.8-7.89,0-.09,0-.28.04-.56.02-.29.05-.52.06-.69.02-.18.06-.38.13-.6.07-.22.17-.4.31-.53.13-.14.31-.22.53-.27h1.72c.09,0,.38,0,.87-.04.48-.02.77-.03.86-.03.53.05.86.22.99.53Z"/>
      <path class="cls-1" d="m236.35,57.64c.09.53.14,1.21.14,2.05,0,1.02-.07,1.66-.2,1.92-.18.31-.53.48-1.06.53h-13.59c-.49,0-.82-.02-1-.06-.4-.18-.59-.73-.59-1.66v-1.76c0-.16,0-.3-.04-.43-.02-.13-.03-.26-.03-.4.22-.53.42-.83.59-.92.18-.09.67-.13,1.46-.13h12.27c.92,0,1.46.02,1.59.06.27.13.42.4.46.8Z"/>
      <path class="cls-1" d="m220.04,20.43v-1.66c0-.7.05-1.21.13-1.53.22-.66.68-1.05,1.4-1.19.22-.04.68-.06,1.39-.06h11.47c.84,0,1.33.05,1.46.14.27.08.44.42.53.99.05.67.07,1.3.07,1.92v.86c0,.09-.02.22-.04.4-.02.18-.06.31-.1.4-.05.09-.11.19-.19.3-.09.11-.19.19-.31.24-.11.04-.25.08-.43.13h-7.49c-.09,0-.24,0-.46-.04-.22-.02-.39-.03-.5-.03s-.26,0-.43.03c-.18.03-.32.06-.46.14-.13.06-.25.15-.36.26s-.19.25-.23.4c-.05.16-.07.66-.07,1.5v5.83s0,.27-.03.67c-.03.4-.03.68,0,.86.02.18.08.39.19.63.11.25.28.43.5.56.31.14.66.21,1.03.23.38.03.82,0,1.33-.06.51-.06.87-.1,1.09-.1h1.86c.66.05,1.08.16,1.26.33.18.18.29.51.33,1v2.68c0,.06-.02.18-.04.33-.02.16-.06.28-.1.36-.05.09-.08.19-.13.31-.05.11-.12.19-.23.23-.11.04-.23.08-.37.13-.13.05-.64.06-1.52.06-.8,0-1.46-.02-1.99-.06-.05,0-.28,0-.7-.04-.42-.02-.7-.03-.86-.03s-.38.03-.67.1c-.29.06-.49.19-.63.36-.22.22-.33.6-.33,1.13v7.62c0,.71.09,1.16.27,1.33.18.26.49.42.93.46h7.49c.97,0,1.54.05,1.72.13.35.13.55.4.59.8.05.18.07.8.07,1.86,0,.92-.03,1.48-.07,1.66-.04.4-.24.67-.59.8-.22.09-.73.16-1.53.2h-.56c-.19,0-.41-.02-.63-.04s-.4-.04-.53-.04h-9.56c-1.05,0-1.7-.04-1.91-.13-.71-.27-1.06-1.1-1.06-2.52v-30.84Z"/>
    </g>
    <g>
      <path class="cls-1" d="m170.56,37.76c-.3,0-.56-.05-.77-.11-1.5-.45-1.64-2.06-1.51-2.84l2.44-7.44c-1.83,1.17-3.74,1.05-4.75.69-.41-.15-.63-.61-.48-1.02.15-.41.6-.63,1.02-.48,1.04.38,3.45.33,5.18-2.46.83-3.47,2.78-9.52,2.86-9.78.96-1.85,2.45-1.55,3.06-1.35,1.28.44,1.84,1.53,1.66,3.23-.16,1.53-1.7,5.64-3.18,6.98-1.03.92-2.17,1.33-2.81,1.49l-1,3.04c1.23.37,3.66.55,6.11-3.95.21-.39.7-.53,1.08-.32.39.21.53.69.32,1.08-2.16,3.96-4.55,4.98-6.6,4.93,1.67,2.39.79,5.26-.08,6.64-.84,1.34-1.8,1.67-2.55,1.67Zm-.73-2.58s-.08.79.42.94c.22.07.81.24,1.51-.87.08-.13,1.86-3.03-.22-5.29l-1.72,5.23h0Zm6.19-20.25s-1.44,4.51-2.37,7.93c.42-.18.91-.46,1.37-.87,1.13-1.01,2.53-4.72,2.66-5.95.11-1.1-.13-1.4-.59-1.56-.59-.2-.83,0-1.07.46,0,0,0,0,0,0Z"/>
      <path class="cls-1" d="m162.77,30.24c-1.37,0-2.6-.56-3.46-1.57-.99-1.16-1.39-2.82-1.1-4.54.54-3.24,3.39-5.89,6.34-5.92h.04c1.37,0,2.6.56,3.46,1.57.99,1.16,1.39,2.82,1.1,4.54-.54,3.24-3.39,5.89-6.34,5.92h-.04Zm1.82-10.43h-.03c-2.21.02-4.36,2.07-4.78,4.58-.21,1.26.06,2.44.74,3.24.56.66,1.34,1.01,2.25,1.01h.03c2.21-.02,4.36-2.07,4.78-4.58h0c.21-1.26-.06-2.44-.74-3.24-.56-.66-1.34-1.01-2.25-1.01Z"/>
    </g>
    <line class="cls-3" x1="94.89" y1="4.23" x2="247.64" y2="4.23"/>
    <g>
      <path class="cls-1" d="m219.92,80.26l2.89-2.55c1.22-1.09,1.66-1.71,1.66-2.51,0-.93-.74-1.53-1.61-1.53-.91,0-1.5.48-2.14,1.37l-.66-.48c.72-1.07,1.47-1.7,2.87-1.7s2.47.96,2.47,2.25v.02c0,1.16-.62,1.88-2.02,3.1l-2.13,1.89h4.23v.82h-5.57v-.69Z"/>
      <path class="cls-1" d="m226.91,76.99v-.02c0-2.23,1.33-4.12,3.38-4.12s3.35,1.87,3.35,4.1v.02c0,2.23-1.32,4.12-3.37,4.12s-3.36-1.87-3.36-4.1Zm5.8,0v-.02c0-1.74-.96-3.3-2.44-3.3s-2.43,1.53-2.43,3.28v.02c0,1.74.96,3.3,2.45,3.3s2.41-1.54,2.41-3.28Z"/>
      <path class="cls-1" d="m234.78,80.26l2.89-2.55c1.22-1.09,1.66-1.71,1.66-2.51,0-.93-.74-1.53-1.61-1.53-.91,0-1.5.48-2.14,1.37l-.66-.48c.72-1.07,1.47-1.7,2.87-1.7s2.47.96,2.47,2.25v.02c0,1.16-.62,1.88-2.02,3.1l-2.13,1.89h4.23v.82h-5.57v-.69Z"/>
      <path class="cls-1" d="m241.76,76.99v-.02c0-2.23,1.33-4.12,3.38-4.12s3.35,1.87,3.35,4.1v.02c0,2.23-1.32,4.12-3.37,4.12s-3.36-1.87-3.36-4.1Zm5.8,0v-.02c0-1.74-.96-3.3-2.44-3.3s-2.43,1.53-2.43,3.28v.02c0,1.74.96,3.3,2.45,3.3s2.41-1.54,2.41-3.28Z"/>
    </g>
    <g>
      <path class="cls-1" d="m45.95,30.66s-.02-.01-.02-.02c-.13-.1-.26-.2-.4-.3-.03-.02-.07-.05-.1-.07-.14-.1-.27-.19-.42-.28-.06-.04-.11-.07-.17-.1-.08-.05-.17-.1-.26-.15-.08-.04-.16-.09-.23-.13-.06-.03-.12-.06-.18-.09-.17-.09-.34-.17-.52-.25-.03-.02-.07-.03-.1-.05-.11-.05-.23-.1-.35-.15,0,0-.01,0-.02,0-.12-.05-.25-.1-.37-.15v20.3c.13-.04.25-.1.38-.15,0,0,.01,0,.02,0,.12-.05.23-.1.35-.15.03-.01.07-.03.1-.04.18-.08.35-.17.52-.26.06-.03.12-.06.18-.09.08-.04.16-.09.23-.13.09-.05.17-.1.25-.15.06-.03.11-.07.17-.1.14-.09.28-.18.41-.28.03-.02.07-.05.1-.07.13-.1.27-.2.4-.3,0,0,.02-.01.02-.02,1.55-1.24,2.75-2.9,3.43-4.81h14.56c.17-1.17.26-2.37.26-3.59,0-12.57-9.29-22.97-21.38-24.71v7.21c6.99,1.43,12.49,6.93,13.92,13.92h-7.36c-.68-1.91-1.88-3.57-3.43-4.81Z"/>
      <path class="cls-1" d="m35.64,49.21v-20.3c-3.05,1.08-5.47,3.5-6.55,6.56h-14.57c-.17,1.17-.26,2.37-.26,3.59,0,12.57,9.29,22.97,21.38,24.71v-7.2c-6.99-1.43-12.49-6.93-13.92-13.92h7.37c1.08,3.06,3.5,5.47,6.55,6.56Z"/>
      <path class="cls-2" d="m0,39.06c0,20.45,15.66,37.24,35.64,39.06v-7.13c-16.05-1.79-28.54-15.39-28.54-31.92,0-13.96,8.91-25.84,21.36-30.27v7.74c-5.14,2.46-9.3,6.63-11.76,11.76h8.28c2.57-3.4,6.33-5.85,10.66-6.73V0C15.66,1.81,0,18.6,0,39.06Z"/>
      <path class="cls-2" d="m42.82,0v7.13c16.05,1.79,28.54,15.39,28.54,31.92,0,13.96-8.91,25.84-21.36,30.27v-7.74c5.14-2.46,9.3-6.63,11.76-11.76h-8.28c-2.57,3.4-6.33,5.85-10.66,6.73v21.55c19.98-1.81,35.64-18.6,35.64-39.06S62.8,1.81,42.82,0Z"/>
    </g>
    <line class="cls-3" x1="212.7" y1="73.89" x2="94.64" y2="73.89"/>
  </g>
  <path class="cls-1" d="m239.22,15.71h3.59v.95h-1.21v2.88h-1.18v-2.88h-1.21v-.95h0Zm4.12,0h1.56l.6,2.33.6-2.33h1.55v3.83h-.97v-2.92l-.75,2.92h-.87l-.75-2.92v2.92h-.97v-3.83h0Z"/>
</svg>