<svg xmlns:xlink="http://www.w3.org/1999/xlink" xmlns="http://www.w3.org/2000/svg" width="130" height="60" viewBox="0 0 130 60" fill="none"><path d="M129.191 17.4414V21.4867H123.545V17.4414H129.191ZM129.191 22.7397V44.3841H123.545V22.7397H126.354H129.191Z" fill="#285AA5"></path><path d="M105.532 36.2576V44.3841H99.8293L99.7646 17.4414H105.74L105.532 31.6896L113.368 22.7182H119.495L111.781 31.1669L120.084 44.3841H113.856L107.996 34.575L105.532 36.2576Z" fill="#285AA5"></path><path d="M96.3389 17.4414V21.4867H90.6936V17.4414H96.3389ZM96.3389 22.7684V44.3841H90.6936V22.7684H96.3389Z" fill="#285AA5"></path><path d="M62.7899 33.7231V44.3842H57.0153V27.7661C57.0153 26.5775 57.0009 25.5823 56.965 24.7875C56.9291 23.9928 56.8932 23.3627 56.8501 22.747H62.3231C62.3518 22.8687 62.4236 23.062 62.4452 23.4773C62.4739 23.8925 62.5026 24.3579 62.5242 24.8735C62.5457 25.389 62.5744 25.8758 62.596 26.3269C62.6175 26.7851 62.6247 27.1073 62.6247 27.3078H62.7037C63.2496 25.8114 63.7524 24.7303 64.2048 24.0787C64.643 23.4486 65.1673 22.9904 65.7706 22.6968C66.3739 22.4033 67.1281 22.2529 68.033 22.2529C68.7728 22.2529 69.369 22.3532 69.8215 22.5536V27.272C68.9021 27.0715 68.0761 26.9713 67.3507 26.9713C65.9142 26.9713 64.7866 27.5441 63.9894 28.6754C63.1921 29.8066 62.7899 31.4892 62.7899 33.7231Z" fill="#285AA5"></path><path d="M15.537 39.8014C19.2862 39.8014 21.8791 38.0329 23.3155 34.5031L28.7023 36.4219C27.5388 39.1069 25.8366 41.1117 23.5957 42.4219C21.3548 43.7322 18.6614 44.3909 15.5299 44.3909C12.3696 44.3909 9.67623 43.8181 7.45688 42.6797C5.23753 41.5413 3.5353 39.8873 2.37176 37.7322C1.20822 35.5699 0.619263 32.978 0.619263 29.9494C0.619263 26.8921 1.17949 24.3145 2.29994 22.2024C3.42039 20.0974 5.06515 18.4935 7.24859 17.3909C9.43203 16.2883 12.0967 15.7441 15.2569 15.7441C18.726 15.7441 21.5487 16.4029 23.7321 17.7131C25.9156 19.0234 27.4454 20.9494 28.3217 23.4912L22.8702 24.8945C22.4106 23.4983 21.5056 22.3885 20.1553 21.5651C18.8122 20.7274 17.2249 20.3193 15.3934 20.3193C12.5995 20.3193 10.4735 21.1355 9.02982 22.768C7.58616 24.4005 6.86074 26.7919 6.86074 29.9422C6.86074 32.0759 7.19113 33.873 7.85909 35.3336C8.51987 36.7942 9.50385 37.904 10.7967 38.663C12.0823 39.4219 13.6624 39.8014 15.537 39.8014Z" fill="#285AA5"></path><path d="M79.9125 33.7374V44.3842H74.1307V27.7875C74.1307 26.599 74.1163 25.6038 74.0804 24.809C74.0445 24.0143 74.0158 23.3556 73.9727 22.7398H79.4887C79.5174 22.8615 79.539 23.0835 79.5605 23.4988C79.5893 23.914 79.618 24.3794 79.6395 24.8949C79.6683 25.4104 79.6898 25.8973 79.7114 26.3484C79.7329 26.8066 79.7401 27.1288 79.7401 27.3293H79.8191C80.365 25.8329 80.8677 24.7589 81.3202 24.1002C81.7583 23.4701 82.2827 23.0119 82.886 22.7183C83.4893 22.4248 84.2434 22.2744 85.1484 22.2744C85.8882 22.2744 86.4843 22.3747 86.9368 22.5751V27.2863C86.0175 27.0859 85.1915 26.9856 84.4661 26.9856C83.0224 26.9856 81.902 27.5513 81.1047 28.6897C80.3147 29.8209 79.9125 31.5107 79.9125 33.7374Z" fill="#285AA5"></path><path d="M52.4906 39.2359V25.5391C50.8818 27.0426 48.921 27.9233 46.7448 28.5749V34.1166C46.7448 35.9138 46.321 37.3815 45.4663 38.5343C44.6116 39.6799 43.4911 40.2527 42.1049 40.2527C40.7978 40.2527 39.8138 39.7873 39.1602 38.8493C38.5066 37.9114 38.1762 36.5152 38.1762 34.6536V28.582C35.9928 27.909 34.0391 27.0713 32.4303 25.5462V36.2288C32.4303 38.8994 33.0552 40.9328 34.3121 42.3147C35.569 43.6966 37.3646 44.3911 39.706 44.3911C41.3293 44.3911 42.7298 44.0259 43.9077 43.2884C45.0856 42.551 46.0552 41.3839 46.8166 39.7658H46.9171C46.9171 40.224 46.9387 40.8111 46.9746 41.52C47.0177 42.2288 47.2475 43.446 47.3265 44.3911H52.6343C52.5768 43.7109 52.5409 42.5796 52.5122 41.7849C52.505 40.9901 52.4906 40.1381 52.4906 39.2359Z" fill="#285AA5"></path><path d="M50.9891 18.3722C47.7068 19.6324 43.9935 19.7469 40.5316 18.8734C38.3625 18.2935 36.2581 17.3627 34.3835 16.0596C34.3835 16.1383 34.3763 16.2171 34.3691 16.2887C34.2973 17.7851 34.405 19.2958 34.7498 20.7493C35.0874 22.1956 35.6691 23.5989 36.5526 24.766C37.4216 25.9474 38.6355 26.8495 40.0288 27.2791C41.4222 27.6944 42.9449 27.6228 44.3454 27.1216C45.7532 26.6347 47.0388 25.7899 48.1449 24.7588C50.2063 22.8328 51.6858 20.3269 52.6123 17.6347C52.4687 17.7063 52.3322 17.7779 52.1886 17.8495C51.8079 18.0643 51.3985 18.2075 50.9891 18.3722Z" fill="#F8AF2C"></path><path d="M44.0509 3.98111C44.6255 4.25318 45.2217 4.4823 45.8322 4.68278C47.0532 5.06225 48.3245 5.34865 49.6245 5.35581C50.2709 5.35581 50.9245 5.28421 51.5278 5.06225C51.7504 4.99065 51.9516 4.8761 52.1455 4.75438C51.9372 4.38922 51.7145 4.03123 51.456 3.69471C50.5294 2.45605 49.2151 1.49662 47.7283 1.06703C46.9814 0.866554 46.2057 0.787794 45.4371 0.837913C44.6686 0.888033 43.9145 1.08135 43.1962 1.35343C42.6145 1.58254 42.0614 1.8761 41.5371 2.21261C41.8029 2.49901 42.1045 2.75677 42.4277 3.0002C42.9377 3.37968 43.4835 3.70187 44.0509 3.98111Z" fill="#F8AF2C"></path><path d="M54.9035 16.0739L54.3864 16.4748C54.214 16.6037 54.0488 16.7469 53.8621 16.8686L53.3665 17.1765C52.519 20.2051 51.0035 23.0977 48.7195 25.3531C48.0372 26.019 47.283 26.6204 46.4642 27.1216C52.009 25.4891 56.0958 20.4987 56.3759 14.5273C56.0671 14.914 55.7295 15.2863 55.3704 15.63L54.9035 16.0739Z" fill="#F8AF2C"></path><path d="M53.3449 8.0552C53.1007 7.00269 52.7272 5.97167 52.2101 5.0194C52.0162 5.15544 51.8079 5.27 51.5852 5.34876C50.9675 5.60651 50.3068 5.73539 49.646 5.79983C48.9852 5.87143 48.3101 5.87143 47.6421 5.82131C46.9741 5.76403 46.3134 5.64947 45.6598 5.48479C45.0134 5.31296 44.3741 5.09816 43.7421 4.8404C43.1172 4.57549 42.5139 4.26045 41.9393 3.88098C41.5299 3.6089 41.1277 3.30103 40.7686 2.92871C40.3017 3.28671 39.8708 3.6805 39.4614 4.09577C38.3984 5.18408 37.5221 6.44422 36.8039 7.78312C36.4376 8.44899 36.1288 9.13634 35.8486 9.83801C35.5685 10.5397 35.3243 11.2557 35.1232 11.986C34.958 12.5874 34.8144 13.1888 34.6995 13.7974C36.4807 15.4227 38.6785 16.6399 41.02 17.406C42.5785 17.9001 44.2017 18.2079 45.8537 18.3082C47.4985 18.4012 49.1719 18.2724 50.788 17.8499C51.1902 17.7282 51.5996 17.6351 51.9803 17.4633C52.2747 17.3487 52.5764 17.2413 52.8637 17.0981C53.3018 15.6518 53.5963 14.1554 53.6897 12.6375C53.7687 11.1125 53.6825 9.55878 53.3449 8.0552Z" fill="#F8AF2C"></path><path d="M52.4977 4.86873C53.0292 5.83532 53.417 6.88782 53.6612 7.96897C54.3435 10.8329 54.164 13.8616 53.3811 16.6969L53.4889 16.6468C53.6756 16.5537 53.848 16.432 54.0275 16.3246L54.5662 15.9881L55.0546 15.5943C55.5286 15.2076 55.9596 14.778 56.3402 14.3055C56.3474 14.2124 56.3546 14.1193 56.3546 14.0191C56.4623 10.3747 55.1408 7.02386 52.9071 4.48926C52.8209 4.59666 52.7203 4.6969 52.6198 4.78281C52.5767 4.81861 52.5408 4.84725 52.4977 4.86873Z" fill="#F8AF2C"></path><path d="M40.7831 1.02387C40.8693 1.26014 40.9698 1.5179 41.1494 1.74702C41.1853 1.79714 41.2212 1.8401 41.2643 1.89022C41.8533 1.56802 42.4638 1.28878 43.103 1.08831C44.5179 0.615752 46.0765 0.522673 47.513 0.894989C45.9903 0.322196 44.3384 0 42.6146 0C42.04 0 41.4798 0.0357995 40.9267 0.107399C40.8693 0.186158 40.819 0.264917 40.7903 0.357995C40.7256 0.558473 40.7256 0.78043 40.7831 1.02387Z" fill="#F8AF2C"></path><path d="M51.5566 3.63057C51.8152 3.95992 52.0594 4.31076 52.2749 4.67591C52.3108 4.65443 52.3395 4.63295 52.3682 4.60431C52.4688 4.51124 52.5621 4.40384 52.6412 4.29644C51.9229 3.54465 51.1257 2.87878 50.2638 2.29883C50.7378 2.69262 51.176 3.13654 51.5566 3.63057Z" fill="#F8AF2C"></path><path d="M33.098 11.9496C33.2776 12.1787 33.4643 12.4007 33.6583 12.6155C33.7445 12.2432 33.845 11.8709 33.9527 11.4985C34.434 9.97348 35.0732 8.49138 35.9279 7.131C36.7754 5.77778 37.8097 4.53196 39.0091 3.47945C39.4544 3.08566 39.9285 2.7205 40.4241 2.39831C40.4025 2.37683 40.381 2.35535 40.3666 2.32671C40.1368 2.04747 39.95 1.7038 39.8064 1.33148C39.7058 1.01645 39.6627 0.665612 39.7058 0.307617C35.9423 1.10953 32.7461 3.43649 30.7997 6.60117C30.8428 7.0236 30.9146 7.44604 31.0152 7.86131C31.3815 9.32193 32.1141 10.7181 33.098 11.9496Z" fill="#F8AF2C"></path><path d="M33.6079 21.036C33.2129 19.4609 33.062 17.8427 33.1338 16.2317C33.1482 15.8738 33.1841 15.5158 33.22 15.1578C32.5664 14.6136 31.9488 14.0193 31.3742 13.3749C30.5338 12.4084 29.8084 11.3272 29.2626 10.1387C28.9393 11.3057 28.767 12.5372 28.767 13.8117C28.767 19.1745 31.841 23.8212 36.3228 26.1124C36.1074 25.8905 35.9134 25.6613 35.7267 25.4251C34.6924 24.122 34.0173 22.5969 33.6079 21.036Z" fill="#F8AF2C"></path><path d="M75.8689 54.2583C75.8689 52.7404 77.0755 51.9814 79.4816 51.9814C82.017 51.9814 83.2811 52.6545 83.2811 54.0077C83.2811 54.1294 83.2452 54.2297 83.1662 54.3156C83.0872 54.3943 82.9866 54.4373 82.8645 54.4373H81.8303C81.4999 54.4373 81.2198 54.2941 80.9899 54.0077C80.7601 53.7213 80.3148 53.5781 79.654 53.5781C78.7418 53.5781 78.2822 53.8072 78.2822 54.2583C78.2822 54.4731 78.4617 54.6449 78.8208 54.7881C79.18 54.9313 79.6181 55.053 80.1352 55.1604C80.6524 55.2678 81.1623 55.4039 81.6794 55.5686C82.1894 55.7332 82.6275 55.9981 82.9866 56.3561C83.3457 56.7141 83.5253 57.1724 83.5253 57.7237C83.5253 59.2416 82.254 60.0005 79.7115 60.0005C77.1689 60.0005 75.8976 59.3275 75.8976 57.9814C75.8976 57.8526 75.9407 57.7523 76.0197 57.6664C76.0987 57.5876 76.2065 57.5447 76.3286 57.5447H77.3628C77.6932 57.5447 77.9733 57.6879 78.2032 57.9743C78.433 58.2607 78.8783 58.4039 79.5391 58.4039C80.5949 58.4039 81.1264 58.1748 81.1264 57.7237C81.1264 57.5089 80.9468 57.337 80.5877 57.1938C80.2286 57.0507 79.7905 56.9289 79.2733 56.8144C78.7562 56.707 78.2391 56.5709 77.7291 56.4063C77.2192 56.2416 76.7811 55.9838 76.4219 55.6187C76.0485 55.2464 75.8689 54.7953 75.8689 54.2583Z" fill="#285AA5"></path><path d="M89.7813 58.3178L90.7294 58.2319H90.9879C91.11 58.2319 91.2178 58.2748 91.2968 58.3536C91.3758 58.4324 91.4189 58.5398 91.4189 58.6615V59.4133C91.4189 59.5135 91.3758 59.6066 91.2968 59.6925C91.2178 59.7713 91.11 59.8285 90.9879 59.8429C90.5139 59.9359 89.9034 59.9861 89.1421 59.9861C87.1525 59.9861 86.1614 58.9264 86.1614 56.8142V50.177C86.1614 50.0481 86.2045 49.9479 86.2835 49.8619C86.3625 49.7832 86.463 49.7402 86.5851 49.7402H88.1365C88.2586 49.7402 88.3592 49.7832 88.4382 49.8619C88.5172 49.9407 88.5603 50.0481 88.5603 50.177V52.5326H90.4923C90.6144 52.5326 90.715 52.5756 90.794 52.6543C90.873 52.7331 90.9161 52.8405 90.9161 52.9622V53.7999C90.9161 53.9288 90.873 54.029 90.794 54.1078C90.715 54.1865 90.6144 54.2295 90.4923 54.2295H88.5603V56.8142C88.5603 57.2939 88.668 57.6662 88.8907 57.924C89.1133 58.1818 89.4078 58.3178 89.7813 58.3178Z" fill="#285AA5"></path><path d="M93.8467 56.5924V52.5543C93.8467 52.4254 93.8898 52.3251 93.9688 52.2392C94.0478 52.1605 94.1483 52.1175 94.2704 52.1175H95.8218C95.9439 52.1175 96.0445 52.1605 96.1235 52.2392C96.2025 52.318 96.2456 52.4254 96.2456 52.5543V56.5924C96.2456 57.7237 96.6837 58.2822 97.56 58.2822C98.1346 58.2822 98.7594 57.9457 99.4274 57.2655V52.5471C99.4274 52.4182 99.4705 52.318 99.5495 52.2321C99.6285 52.1533 99.729 52.1104 99.8511 52.1104H101.395C101.517 52.1104 101.625 52.1533 101.704 52.2321C101.783 52.3108 101.826 52.4182 101.826 52.5471V59.4134C101.826 59.5352 101.783 59.6354 101.704 59.7213C101.625 59.8001 101.517 59.843 101.395 59.843H99.8511C99.729 59.843 99.6285 59.8001 99.5495 59.7213C99.4705 59.6426 99.4274 59.5352 99.4274 59.4134V58.9624C98.6301 59.6426 97.7826 59.9862 96.8848 59.9862C95.987 59.9862 95.2544 59.707 94.687 59.1485C94.1268 58.5901 93.8467 57.7452 93.8467 56.5924Z" fill="#285AA5"></path><path d="M107.866 59.9861C106.897 59.9861 106.092 59.6424 105.439 58.9479C104.792 58.2605 104.462 57.2653 104.462 55.9765C104.462 54.6877 104.799 53.6997 105.475 53.0123C106.15 52.325 107.055 51.9813 108.19 51.9813C108.779 51.9813 109.446 52.103 110.193 52.3393V50.177C110.193 50.0481 110.237 49.9479 110.316 49.8619C110.395 49.7832 110.495 49.7402 110.617 49.7402H112.161C112.284 49.7402 112.391 49.7832 112.47 49.8619C112.549 49.9407 112.592 50.0481 112.592 50.177V59.4133C112.592 59.535 112.549 59.6352 112.47 59.7211C112.391 59.7999 112.284 59.8429 112.161 59.8429H110.833C110.711 59.8429 110.603 59.7999 110.531 59.7211C110.452 59.6424 110.416 59.535 110.416 59.4133V59.1985C109.683 59.7211 108.836 59.9861 107.866 59.9861ZM107.342 54.2295C107.076 54.5946 106.947 55.1746 106.947 55.9837C106.947 56.7856 107.069 57.3727 107.321 57.7378C107.572 58.103 107.945 58.2892 108.448 58.2892C108.951 58.2892 109.533 58.0744 110.201 57.6519V53.9646C109.604 53.7784 109.102 53.6853 108.692 53.6853C108.053 53.6853 107.608 53.8643 107.342 54.2295Z" fill="#285AA5"></path><path d="M115.667 50.6424V50.4061C115.667 50.1555 115.739 49.9622 115.875 49.8118C116.019 49.6686 116.213 49.5898 116.464 49.5898H117.326C117.57 49.5898 117.764 49.6614 117.908 49.8046C118.051 49.9478 118.123 50.1483 118.123 50.3989V50.6352C118.123 50.8858 118.051 51.0791 117.915 51.2295C117.771 51.3727 117.577 51.4514 117.326 51.4514H116.464C116.22 51.4514 116.026 51.3798 115.882 51.2295C115.739 51.0934 115.667 50.8929 115.667 50.6424ZM115.695 59.4132V52.7259C115.695 52.597 115.739 52.4968 115.818 52.418C115.897 52.3392 115.997 52.2963 116.119 52.2963H117.671C117.793 52.2963 117.9 52.3392 117.972 52.418C118.051 52.4968 118.087 52.6042 118.087 52.7259V59.4132C118.087 59.5421 118.044 59.6423 117.965 59.7211C117.886 59.7999 117.786 59.8428 117.663 59.8428H116.112C115.99 59.8428 115.882 59.7999 115.81 59.7211C115.739 59.6423 115.695 59.5421 115.695 59.4132Z" fill="#285AA5"></path><path d="M121.844 58.9695C121.125 58.2893 120.759 57.2941 120.759 55.9767C120.759 54.6592 121.118 53.664 121.844 52.991C122.562 52.318 123.603 51.9814 124.954 51.9814C126.304 51.9814 127.345 52.318 128.064 52.991C128.782 53.664 129.148 54.6592 129.148 55.9767C129.148 57.2941 128.789 58.2893 128.064 58.9695C127.338 59.6497 126.311 59.9862 124.961 59.9862C123.61 59.9862 122.569 59.6497 121.844 58.9695ZM123.603 54.1509C123.316 54.5304 123.172 55.139 123.172 55.9767C123.172 56.8144 123.316 57.423 123.603 57.8096C123.891 58.1962 124.343 58.3895 124.961 58.3895C125.578 58.3895 126.031 58.1962 126.318 57.8096C126.605 57.423 126.749 56.8144 126.749 55.9767C126.749 55.139 126.605 54.5304 126.318 54.1509C126.031 53.7714 125.578 53.5781 124.961 53.5781C124.343 53.5781 123.891 53.7714 123.603 54.1509Z" fill="#285AA5"></path><path fill-rule="evenodd" clip-rule="evenodd" d="M0 54.8877C0 54.3354 0.447715 53.8877 1 53.8877H70.5828C71.1351 53.8877 71.5828 54.3354 71.5828 54.8877C71.5828 55.44 71.1351 55.8877 70.5828 55.8877H1C0.447715 55.8877 0 55.44 0 54.8877Z" fill="#285AA5"></path></svg>