<svg width="559" height="125" viewBox="0 0 559 125" fill="none" xmlns="http://www.w3.org/2000/svg">
<path fill-rule="evenodd" clip-rule="evenodd" d="M474.895 14.9113V0.413635C486.043 0.425903 496.729 4.84302 504.611 12.6957C512.494 20.5485 516.928 31.1956 516.941 42.301H502.389C502.381 35.0393 499.48 28.0773 494.326 22.9426C489.172 17z.8078 482.184 14.9196 474.895 14.9113ZM558.99 0.413635V14.9113C551.701 14.9203 544.715 17.809 539.561 22.9437C534.406 28.0784 531.508 35.0399 531.5 42.301H516.947C516.959 31.1961 521.393 20.5494 529.275 12.6968C537.156 4.84418 547.844 0.426758 558.99 0.413635Z" fill="url(#paint0_linear_2475_4997)"/>
<path fill-rule="evenodd" clip-rule="evenodd" d="M0 48.8508C0 20.1338 20.3379 0.00541883 49.2969 0.00541883C55.8398 -0.0927257 62.334 1.14324 68.3789 3.6375C74.4258 6.13176 79.8945 9.83147 84.4531 14.5093L73.9473 24.1713C70.8145 20.9805 67.0586 18.4645 62.9121 16.7796C58.7637 15.0947 54.3125 14.2766 49.834 14.3762C29.7676 14.3762 15.8906 28.4655 15.8906 48.8631C15.8906 69.2607 29.7637 83.3501 49.834 83.3501C59.2246 83.3835 68.2598 79.7739 75.0234 73.2859L85.127 83.7523C80.4258 88.3517 74.8418 91.9585 68.709 94.3566C62.5762 96.7547 56.0195 97.8948 49.4336 97.7085C20.2051 97.693 0 77.5677 0 48.8508ZM156.328 88.0402L163.332 77.1716C170.127 82.1103 178.357 84.7024 186.77 84.5535C195.254 84.5535 200.104 81.868 200.104 77.0386C200.104 72.3421 195.793 70.062 185.557 68.9947C168.166 67.3859 158.35 60.1369 158.35 48.597C158.35 36.5311 169.934 28.3354 187.176 28.3354C196.557 28.1114 205.775 30.7829 213.572 35.9834L206.973 46.719C201.285 43.0249 194.637 41.0657 187.846 41.0821C178.281 41.0821 173.164 43.7675 173.164 48.597C173.164 52.8912 177.07 55.1714 186.766 56.245C206.43 58.3921 215.051 64.6973 215.051 77.1778C215.051 89.5222 203.604 97.8414 186.361 97.8414C175.539 97.9703 164.977 94.5237 156.328 88.0402ZM257.977 28.4593C236.836 28.4593 222.551 42.5486 222.551 63.0792C222.551 84.0121 236.561 97.6991 258.104 97.7053C262.902 97.8054 267.67 96.9288 272.117 95.1291C276.562 93.3294 280.594 90.6446 283.963 87.2389L274.668 77.1747C272.562 79.3968 270.012 81.154 267.182 82.3329C264.352 83.5116 261.303 84.0858 258.236 84.0182C252.727 83.9238 247.475 81.6769 243.611 77.7615C239.748 73.8461 237.582 68.5756 237.582 63.0854C237.582 57.5951 239.748 52.3246 243.611 48.4092C247.475 44.4938 252.727 42.2469 258.236 42.1525C264.119 42.1144 269.783 44.3812 274.004 48.464L283.162 38.6689C279.859 35.3793 275.93 32.7812 271.605 31.0278C267.279 29.2743 262.645 28.4011 257.977 28.4593ZM346.197 29.935L346.061 38.7927C343.061 35.3631 339.322 32.6526 335.125 30.8634C330.928 29.0742 326.377 28.2524 321.816 28.4593C302.285 28.4593 288.816 42.6909 288.816 63.0793C288.816 83.4676 302.285 97.6991 321.816 97.6991C326.375 97.8921 330.92 97.064 335.117 95.2757C339.312 93.4874 343.053 90.7843 346.061 87.3658L346.197 96.2234H359.666V29.935H346.197ZM324.242 84.0121C312.254 84.0121 303.902 75.4236 303.902 63.0793C303.902 50.7349 312.254 42.1463 324.242 42.1463C336.229 42.1463 344.58 50.7349 344.58 63.0793C344.58 75.4236 336.217 84.0121 324.242 84.0121ZM377.766 0.413683H392.852V96.1492H377.766V0.413683ZM440.68 28.1901C420.072 28.1901 406.209 42.1463 406.209 62.677C406.209 83.879 420.352 97.6991 442.309 97.6991C447.625 97.8069 452.908 96.8398 457.838 94.8564C462.77 92.8729 467.246 89.9143 470.996 86.1592L461.838 77.3015C456.561 81.9092 449.727 84.3544 442.711 84.1451C430.994 84.1451 422.91 77.9574 421.699 68.3108H474.904C477.043 43.489 464.119 28.1901 440.68 28.1901ZM421.824 56.6533C423.709 46.8583 430.582 41.2213 441.078 41.2213C452.125 41.2213 459.4 47.2605 460.475 56.6533H421.824ZM155.426 29.935L123.223 109.233C118.965 119.962 111.865 124.467 98.6934 124.783C96.2402 124.722 93.7949 124.49 91.375 124.09L93.5762 110.938C95.0664 111.355 96.6035 111.578 98.1504 111.603C103.678 111.603 106.951 109.855 108.77 105.938L112.572 97.2352L85.5547 29.935H101.791L120.424 79.4115L139.057 29.935H155.426Z" fill="white"/>
<defs>
<linearGradient id="paint0_linear_2475_4997" x1="464.425" y1="21.3573" x2="555.413" y2="21.3573" gradientUnits="userSpaceOnUse">
<stop offset="0.107" stop-color="#0F26AA"/>
<stop offset="0.88" stop-color="#FF4A56"/>
</linearGradient>
</defs>
</svg>
