<?xml version="1.0" encoding="utf-8"?>
<!-- Generator: Adobe Illustrator 26.0.3, SVG Export Plug-In . SVG Version: 6.00 Build 0)  -->
<svg version="1.1" id="Layer_1" xmlns="http://www.w3.org/2000/svg" xmlns:xlink="http://www.w3.org/1999/xlink" x="0px" y="0px"
	 viewBox="0 0 462 89" style="enable-background:new 0 0 462 89;" xml:space="preserve">
<style type="text/css">
	.st0{fill:url(#SVGID_1_);}
	.st1{fill:url(#SVGID_00000090274929440519068710000003077785570378173625_);}
	.st2{fill:url(#SVGID_00000007418834754194699050000006559130062355443903_);}
	.st3{fill:url(#SVGID_00000065762301911049962100000003063478199757133716_);}
	.st4{fill:url(#SVGID_00000079457969839076278610000004379181777782092942_);}
	.st5{fill:url(#SVGID_00000148642283676339854230000016287183912770267057_);}
	.st6{fill:url(#SVGID_00000134941496264942293710000009653864824752899243_);}
	.st7{fill:url(#SVGID_00000011007119375985319380000007298222362436099501_);}
	.st8{fill:url(#SVGID_00000137837429823316862660000004980391946529700013_);}
	.st9{fill:url(#SVGID_00000109740554861830543490000011388893658932689052_);}
	.st10{fill:url(#SVGID_00000103266448539402026210000005801565031651021714_);}
</style>
<linearGradient id="SVGID_1_" gradientUnits="userSpaceOnUse" x1="17.1222" y1="83.6629" x2="42.6294" y2="-11.5523" gradientTransform="matrix(1 0 0 -1 0 90)">
	<stop  offset="0" style="stop-color:#FDF5A6"/>
	<stop  offset="1" style="stop-color:#B88746"/>
</linearGradient>
<path class="st0" d="M22.3,14.1V89l5.3-3.1l0.1-7.1l6.1,3.5l5.1-2.9V23.6L22.3,14.1z M33.4,75.9l-5.8,2.9V23.4l5.8,3.4V75.9z"/>
<linearGradient id="SVGID_00000143605106380290613460000000128849602420791981_" gradientUnits="userSpaceOnUse" x1="17.2721" y1="83.472" x2="45.2779" y2="-21.0695" gradientTransform="matrix(1 0 0 -1 0 90)">
	<stop  offset="0" style="stop-color:#FDF5A6"/>
	<stop  offset="1" style="stop-color:#B88746"/>
</linearGradient>
<path style="fill:url(#SVGID_00000143605106380290613460000000128849602420791981_);" d="M19.4,0L0,11.1v6.3L19.4,6.3l19.4,11.2
	v-6.3L19.4,0z"/>
<linearGradient id="SVGID_00000112609857195874575960000004064330332297704343_" gradientUnits="userSpaceOnUse" x1="2.9779" y1="80.4775" x2="28.4852" y2="-14.737" gradientTransform="matrix(1 0 0 -1 0 90)">
	<stop  offset="0" style="stop-color:#FDF5A6"/>
	<stop  offset="1" style="stop-color:#B88746"/>
</linearGradient>
<path style="fill:url(#SVGID_00000112609857195874575960000004064330332297704343_);" d="M11.1,17.2v61.8l0.1,7l5.3,3.1V14.1
	L11.1,17.2z"/>
<linearGradient id="SVGID_00000065057222839235023260000007320067579642884527_" gradientUnits="userSpaceOnUse" x1="-7.7167" y1="78.7669" x2="17.7793" y2="-16.4055" gradientTransform="matrix(1 0 0 -1 0 90)">
	<stop  offset="0" style="stop-color:#FDF5A6"/>
	<stop  offset="1" style="stop-color:#B88746"/>
</linearGradient>
<path style="fill:url(#SVGID_00000065057222839235023260000007320067579642884527_);" d="M5.4,20.6l-5.4,3v55.9l5.1,2.9l6-3.5
	l-5.8-3V20.6z"/>
<linearGradient id="SVGID_00000016040346515057402570000003942811365011997578_" gradientUnits="userSpaceOnUse" x1="67.5404" y1="157.4511" x2="130.5522" y2="-77.7639" gradientTransform="matrix(1 0 0 -1 0 90)">
	<stop  offset="0" style="stop-color:#FDF5A6"/>
	<stop  offset="1" style="stop-color:#B88746"/>
</linearGradient>
<path style="fill:url(#SVGID_00000016040346515057402570000003942811365011997578_);" d="M72.6,44.2V23.8h10.5v22.2
	c0,8.3,4.3,12.5,12.3,12.5c8.1,0,12.4-4.1,12.4-12.5V23.8h10.5v20.4c0,18.3-8.9,23.6-22.9,23.6C81.5,67.8,72.6,62.5,72.6,44.2z"/>
<linearGradient id="SVGID_00000013890923124552554770000000641081662370971541_" gradientUnits="userSpaceOnUse" x1="118.0989" y1="161.75" x2="178.6289" y2="-64.2015" gradientTransform="matrix(1 0 0 -1 0 90)">
	<stop  offset="0" style="stop-color:#FDF5A6"/>
	<stop  offset="1" style="stop-color:#B88746"/>
</linearGradient>
<path style="fill:url(#SVGID_00000013890923124552554770000000641081662370971541_);" d="M128.4,23.8h30.9c8.9,0,14.4,5.9,14.4,13.2
	c0,8.8-6.1,13.1-14.4,13.1h-20.5v16.8h-10.5L128.4,23.8L128.4,23.8z M157.8,41.5c3.7,0,5.4-1.3,5.4-4.5c0-3.2-1.7-4.6-5.4-4.6h-19
	v9.1H157.8z"/>
<linearGradient id="SVGID_00000108268274126012066950000015533651409509353151_" gradientUnits="userSpaceOnUse" x1="171.299" y1="170.2822" x2="232.49" y2="-58.136" gradientTransform="matrix(1 0 0 -1 0 90)">
	<stop  offset="0" style="stop-color:#FDF5A6"/>
	<stop  offset="1" style="stop-color:#B88746"/>
</linearGradient>
<path style="fill:url(#SVGID_00000108268274126012066950000015533651409509353151_);" d="M219.1,51.2c-1.8,4.8-7.1,7.6-14.5,7.6
	c-9.2,0-15.3-5.2-15.3-13.5s6.1-13.5,15.3-13.5c7.2,0,12.5,2.8,14.4,7.6h11c-1.7-10.1-11.4-16.6-25.5-16.6
	c-15.5,0-25.8,8.9-25.8,22.5c0,13.6,10.3,22.5,25.8,22.5c14.1,0,23.8-6.5,25.5-16.6H219.1z"/>
<linearGradient id="SVGID_00000053545287104822020390000009348060290800208792_" gradientUnits="userSpaceOnUse" x1="225.4348" y1="178.9749" x2="286.5149" y2="-49.0258" gradientTransform="matrix(1 0 0 -1 0 90)">
	<stop  offset="0" style="stop-color:#FDF5A6"/>
	<stop  offset="1" style="stop-color:#B88746"/>
</linearGradient>
<path style="fill:url(#SVGID_00000053545287104822020390000009348060290800208792_);" d="M235.7,45.3c0-13.6,10.3-22.5,25.8-22.5
	c15.5,0,25.8,8.9,25.8,22.5s-10.3,22.5-25.8,22.5C245.9,67.8,235.7,58.9,235.7,45.3z M276.7,45.3c0-8.3-6.1-13.5-15.3-13.5
	c-9.2,0-15.3,5.2-15.3,13.5s6.1,13.5,15.3,13.5C270.6,58.9,276.7,53.6,276.7,45.3z"/>
<linearGradient id="SVGID_00000021830243390432229710000015944435010920456846_" gradientUnits="userSpaceOnUse" x1="280.6281" y1="198.9031" x2="346.1151" y2="-45.5519" gradientTransform="matrix(1 0 0 -1 0 90)">
	<stop  offset="0" style="stop-color:#FDF5A6"/>
	<stop  offset="1" style="stop-color:#B88746"/>
</linearGradient>
<path style="fill:url(#SVGID_00000021830243390432229710000015944435010920456846_);" d="M295,23.8h9.4l17.6,27.9l17.5-27.9h9.4v43
	h-10.5V42L323,66.9h-2.1l-15.4-24.8v24.8h-10.5L295,23.8L295,23.8z"/>
<linearGradient id="SVGID_00000183944824809536073350000000200710894669737353_" gradientUnits="userSpaceOnUse" x1="337.0886" y1="205.7483" x2="401.3746" y2="-34.2207" gradientTransform="matrix(1 0 0 -1 0 90)">
	<stop  offset="0" style="stop-color:#FDF5A6"/>
	<stop  offset="1" style="stop-color:#B88746"/>
</linearGradient>
<path style="fill:url(#SVGID_00000183944824809536073350000000200710894669737353_);" d="M359.2,23.8h42.1v9h-31.6v7.1h28v8.4h-28
	v9.5h31.6v8.9h-42.1V23.8z"/>
<linearGradient id="SVGID_00000172438831764326247480000016555655692863143556_" gradientUnits="userSpaceOnUse" x1="387.1858" y1="216.803" x2="452.4178" y2="-26.699" gradientTransform="matrix(1 0 0 -1 0 90)">
	<stop  offset="0" style="stop-color:#FDF5A6"/>
	<stop  offset="1" style="stop-color:#B88746"/>
</linearGradient>
<path style="fill:url(#SVGID_00000172438831764326247480000016555655692863143556_);" d="M410.8,23.8h34c8.9,0,13.7,4.8,13.7,11.3
	c0,6.9-5.6,10.8-13.7,10.8l-4.4,0v0.1c10.3,0.7,14.6,6.7,21.7,20.7h-12.6c-7.9-14.2-10-17.8-17.2-17.8h-11.1l0,17.8h-10.5
	L410.8,23.8L410.8,23.8z M442.6,40.8c3.7,0,5.4-1.4,5.4-4c0-3.1-1.7-4.4-5.4-4.4h-21.5l0,8.4H442.6z"/>
</svg>
