<svg width="216" height="36" viewBox="0 0 216 36" fill="none" xmlns="http://www.w3.org/2000/svg">
<path fill-rule="evenodd" clip-rule="evenodd" d="M61.6217 15.7701V19.2918C61.6217 20.9472 60.2658 22.2935 58.5988 22.2935H57.5034V26.6478H58.5988C62.6837 26.6478 66.0069 23.348 66.0069 19.2918V15.7701C66.0069 14.1148 67.3628 12.7694 69.0298 12.7694H70.1261V8.41504H69.0298C64.945 8.41504 61.6217 11.7149 61.6217 15.7701" fill="#37384F"/>
<path fill-rule="evenodd" clip-rule="evenodd" d="M182.239 15.7701V19.2918C182.239 20.9472 180.883 22.2935 179.216 22.2935H178.12V26.6478H179.216C183.301 26.6478 186.624 23.348 186.624 19.2918V15.7701C186.624 14.1148 187.98 12.7694 189.647 12.7694H190.743V8.41504H189.647C185.563 8.41504 182.239 11.7149 182.239 15.7701" fill="#37384F"/>
<path fill-rule="evenodd" clip-rule="evenodd" d="M72.9312 26.6478H82.7488V22.2935H77.52V12.7694H82.7488V8.41504H72.9312V26.6478Z" fill="#37384F"/>
<path fill-rule="evenodd" clip-rule="evenodd" d="M192.146 26.6478H201.963V22.2935H196.734V12.7694H201.963V8.41504H192.146V26.6478Z" fill="#37384F"/>
<path fill-rule="evenodd" clip-rule="evenodd" d="M84.1514 17.5314C84.1514 22.5585 88.5553 26.6478 93.969 26.6478V22.2935C91.1408 22.2935 88.8406 20.1568 88.8406 17.5314C88.8406 14.9061 91.1408 12.7694 93.969 12.7694V8.41504C88.5553 8.41504 84.1514 12.5044 84.1514 17.5314" fill="#37384F"/>
<path fill-rule="evenodd" clip-rule="evenodd" d="M116.409 17.5314V26.6478H120.536V17.5314C120.536 14.9061 122.56 12.7694 125.049 12.7694H126.227V8.41504H125.049C120.285 8.41504 116.409 12.5044 116.409 17.5314" fill="#37384F"/>
<path fill-rule="evenodd" clip-rule="evenodd" d="M214.809 8.41504C210.046 8.41504 206.17 12.5044 206.17 17.5314V26.6478H210.297V17.5314C210.297 14.9061 212.321 12.7694 214.809 12.7694H215.988V8.41504H214.809Z" fill="#37384F"/>
<path fill-rule="evenodd" clip-rule="evenodd" d="M109.343 18.7655C109.343 20.7109 107.794 22.2935 105.89 22.2935C103.986 22.2935 102.438 20.7109 102.438 18.7655V8.41504H98.1763V18.7655C98.1763 23.1117 101.636 26.6478 105.89 26.6478C110.143 26.6478 113.604 23.1117 113.604 18.7655V8.41504H109.343V18.7655Z" fill="#37384F"/>
<path fill-rule="evenodd" clip-rule="evenodd" d="M130.435 26.6478H134.642V8.41504H130.435V26.6478Z" fill="#37384F"/>
<path fill-rule="evenodd" clip-rule="evenodd" d="M132.538 5.60991C133.7 5.60991 134.642 4.66824 134.642 3.50613C134.642 2.34488 133.7 1.40234 132.538 1.40234C131.376 1.40234 130.435 2.34488 130.435 3.50613C130.435 4.66824 131.376 5.60991 132.538 5.60991" fill="#37384F"/>
<path fill-rule="evenodd" clip-rule="evenodd" d="M169.705 26.6478H173.913V8.41504H169.705V26.6478Z" fill="#37384F"/>
<path fill-rule="evenodd" clip-rule="evenodd" d="M171.809 5.60991C172.971 5.60991 173.913 4.66824 173.913 3.50613C173.913 2.34488 172.971 1.40234 171.809 1.40234C170.647 1.40234 169.705 2.34488 169.705 3.50613C169.705 4.66824 170.647 5.60991 171.809 5.60991" fill="#37384F"/>
<path fill-rule="evenodd" clip-rule="evenodd" d="M158.091 21.3654L153.645 8.46354L153.662 8.41504H153.628H149.315H149.282L149.299 8.46354L144.853 21.3654L140.391 8.41504H136.044L142.326 26.6478H147.38L151.472 14.7708L155.564 26.6478H160.617L166.9 8.41504H162.553L158.091 21.3654Z" fill="#37384F"/>
<path fill-rule="evenodd" clip-rule="evenodd" d="M28.0506 17.5314C28.0506 20.2427 25.853 22.4402 23.1417 22.4402C20.4304 22.4402 18.2329 20.2427 18.2329 17.5314C18.2329 14.8201 20.4304 12.6226 23.1417 12.6226C25.853 12.6226 28.0506 14.8201 28.0506 17.5314" fill="#2870EF"/>
<path fill-rule="evenodd" clip-rule="evenodd" d="M4.7605 11.7576C4.7605 13.7066 3.11558 15.2926 1.09413 15.2926H0V19.6353H1.09413C5.60021 19.6353 9.26565 16.1013 9.26565 11.7576V7.87766C9.26565 5.92869 10.9096 4.34273 12.9311 4.34273H14.0252V0H12.9311C8.42594 0 4.7605 3.53403 4.7605 7.87766V11.7576Z" fill="#37384F"/>
<path fill-rule="evenodd" clip-rule="evenodd" d="M9.24824 27.2789V23.4449C9.24824 21.4986 8.49056 19.6687 7.11926 18.2329C5.94065 19.2966 4.45804 20.0602 2.80518 20.3781C3.94824 20.9712 4.7265 22.1237 4.7265 23.4449V27.2789C4.7265 31.571 8.40544 35.0632 12.9281 35.0632H14.0254V30.7719H12.9281C10.8992 30.7719 9.24824 29.2048 9.24824 27.2789" fill="#37384F"/>
<path fill-rule="evenodd" clip-rule="evenodd" d="M40.1196 27.1849V23.3049C40.1196 21.3559 41.7644 19.77 43.7857 19.77H44.8807V15.4272H43.7857C39.2799 15.4272 35.6147 18.9613 35.6147 23.3049V27.1849C35.6147 29.1339 33.9708 30.7198 31.9495 30.7198H30.8555V35.0626H31.9495C36.4544 35.0626 40.1196 31.5285 40.1196 27.1849" fill="#37384F"/>
<path fill-rule="evenodd" clip-rule="evenodd" d="M35.6326 7.78468V11.6189C35.6326 13.5644 36.3903 15.3953 37.7625 16.8303C38.9411 15.7665 40.4228 15.0037 42.0756 14.6859C40.9316 14.0927 40.1543 12.9401 40.1543 11.6189V7.78468C40.1543 3.49232 36.4754 0 31.9536 0H30.8555V4.29148H31.9536C33.9825 4.29148 35.6326 5.85871 35.6326 7.78468" fill="#37384F"/>
<mask id="mask0_604_120" style="mask-type:luminance" maskUnits="userSpaceOnUse" x="0" y="0" width="216" height="36">
<path fill-rule="evenodd" clip-rule="evenodd" d="M0 35.063H215.988V0H0V35.063Z" fill="white"/>
</mask>
<g mask="url(#mask0_604_120)">
<path d="M199.184 6.74117C198.827 6.74117 198.512 6.6665 198.24 6.51717C197.968 6.3625 197.755 6.1385 197.6 5.84517C197.445 5.55183 197.36 5.19717 197.344 4.78117H197.512V6.59717H196.632V0.757168H197.744V3.67717L197.448 4.13317C197.469 3.68517 197.557 3.31183 197.712 3.01317C197.872 2.7145 198.085 2.4905 198.352 2.34117C198.619 2.19183 198.92 2.11717 199.256 2.11717C199.555 2.11717 199.827 2.17317 200.072 2.28517C200.317 2.39717 200.528 2.5545 200.704 2.75717C200.88 2.9545 201.013 3.1865 201.104 3.45317C201.2 3.71983 201.248 4.0105 201.248 4.32517V4.49317C201.248 4.80783 201.2 5.10117 201.104 5.37317C201.008 5.64517 200.869 5.88517 200.688 6.09317C200.507 6.29583 200.288 6.45583 200.032 6.57317C199.781 6.68517 199.499 6.74117 199.184 6.74117ZM198.936 5.80517C199.176 5.80517 199.384 5.7465 199.56 5.62917C199.741 5.5065 199.883 5.34117 199.984 5.13317C200.085 4.92517 200.136 4.68517 200.136 4.41317C200.136 4.13583 200.085 3.89583 199.984 3.69317C199.883 3.4905 199.741 3.33317 199.56 3.22117C199.384 3.10917 199.176 3.05317 198.936 3.05317C198.717 3.05317 198.515 3.10117 198.328 3.19717C198.147 3.29317 197.997 3.4345 197.88 3.62117C197.768 3.80783 197.712 4.03183 197.712 4.29317V4.61317C197.712 4.86383 197.771 5.07717 197.888 5.25317C198.005 5.42917 198.157 5.56517 198.344 5.66117C198.531 5.75717 198.728 5.80517 198.936 5.80517ZM204.621 6.74917C204.248 6.74917 203.92 6.68517 203.637 6.55717C203.36 6.42917 203.128 6.2585 202.941 6.04517C202.76 5.8265 202.621 5.58383 202.525 5.31717C202.435 5.0505 202.389 4.7785 202.389 4.50117V4.34917C202.389 4.06117 202.435 3.78383 202.525 3.51717C202.621 3.24517 202.76 3.00517 202.941 2.79717C203.128 2.58383 203.357 2.41583 203.629 2.29317C203.901 2.16517 204.216 2.10117 204.573 2.10117C205.043 2.10117 205.435 2.20517 205.749 2.41317C206.069 2.61583 206.309 2.88517 206.469 3.22117C206.629 3.55183 206.709 3.90917 206.709 4.29317V4.69317H202.861V4.01317H206.013L205.669 4.34917C205.669 4.07183 205.629 3.8345 205.549 3.63717C205.469 3.43983 205.347 3.28783 205.181 3.18117C205.021 3.0745 204.819 3.02117 204.573 3.02117C204.328 3.02117 204.12 3.07717 203.949 3.18917C203.779 3.30117 203.648 3.46383 203.557 3.67717C203.472 3.88517 203.429 4.13583 203.429 4.42917C203.429 4.70117 203.472 4.94383 203.557 5.15717C203.643 5.36517 203.773 5.5305 203.949 5.65317C204.125 5.7705 204.349 5.82917 204.621 5.82917C204.893 5.82917 205.115 5.77583 205.285 5.66917C205.456 5.55717 205.565 5.42117 205.613 5.26117H206.637C206.573 5.55983 206.451 5.82117 206.269 6.04517C206.088 6.26917 205.856 6.4425 205.573 6.56517C205.296 6.68783 204.979 6.74917 204.621 6.74917ZM209.978 6.65317C209.578 6.65317 209.247 6.6025 208.986 6.50117C208.73 6.3945 208.538 6.2185 208.41 5.97317C208.282 5.7225 208.218 5.3865 208.218 4.96517L208.226 1.02917H209.266L209.258 5.03717C209.258 5.2505 209.314 5.41583 209.426 5.53317C209.543 5.64517 209.708 5.70117 209.922 5.70117H210.602V6.65317H209.978ZM207.53 3.06917V2.25317H210.602V3.06917H207.53ZM214.603 6.59717V5.30917H214.419V3.87717C214.419 3.6265 214.358 3.43983 214.235 3.31717C214.112 3.1945 213.923 3.13317 213.667 3.13317C213.534 3.13317 213.374 3.13583 213.187 3.14117C213 3.1465 212.811 3.1545 212.619 3.16517C212.432 3.1705 212.264 3.1785 212.115 3.18917V2.24517C212.238 2.2345 212.376 2.22383 212.531 2.21317C212.686 2.2025 212.843 2.19717 213.003 2.19717C213.168 2.19183 213.323 2.18917 213.467 2.18917C213.915 2.18917 214.286 2.24783 214.579 2.36517C214.878 2.4825 215.102 2.6665 215.251 2.91717C215.406 3.16783 215.483 3.49583 215.483 3.90117V6.59717H214.603ZM213.203 6.70917C212.888 6.70917 212.611 6.65317 212.371 6.54117C212.136 6.42917 211.952 6.26917 211.819 6.06117C211.691 5.85317 211.627 5.6025 211.627 5.30917C211.627 4.98917 211.704 4.72783 211.859 4.52517C212.019 4.3225 212.24 4.1705 212.523 4.06917C212.811 3.96783 213.147 3.91717 213.531 3.91717H214.539V4.58117H213.515C213.259 4.58117 213.062 4.64517 212.923 4.77317C212.79 4.89583 212.723 5.05583 212.723 5.25317C212.723 5.4505 212.79 5.6105 212.923 5.73317C213.062 5.85583 213.259 5.91717 213.515 5.91717C213.67 5.91717 213.811 5.8905 213.939 5.83717C214.072 5.7785 214.182 5.6825 214.267 5.54917C214.358 5.4105 214.408 5.22383 214.419 4.98917L214.691 5.30117C214.664 5.60517 214.59 5.86117 214.467 6.06917C214.35 6.27717 214.184 6.43717 213.971 6.54917C213.763 6.65583 213.507 6.70917 213.203 6.70917Z" fill="#2970F1"/>
</g>
</svg>
