<svg width="121" height="48" viewBox="0 0 121 48" fill="none" xmlns="http://www.w3.org/2000/svg">
<path d="M13.6059 38.0864V33.2308C13.6059 33.2308 10.1328 33.2308 8.60009 33.2308C6.36906 33.2308 4.9568 32.0138 4.9568 28.8303L5.00738 14.9716H13.5047V10.5711H5.00738L5.05796 3.64173H0.0505795L0 28.8809C0 35.9904 4.00195 38.0864 8.60009 38.0864C10.555 38.0864 13.6059 38.0864 13.6059 38.0864Z" fill="white"/>
<path d="M29.9933 37.7829C37.6308 37.7829 43.7509 31.5111 43.7509 23.9241C43.7509 16.4384 37.6308 10.1159 29.9933 10.1159C22.3558 10.1159 16.2356 16.3372 16.2356 23.9241C16.2356 31.5111 22.3558 37.7829 29.9933 37.7829ZM29.9933 33.1296C24.9859 33.1296 20.9901 29.0327 20.9901 23.9241C20.9901 18.9168 24.9353 14.7187 29.9933 14.7187C35.0512 14.7187 38.9964 18.8662 38.9964 23.9241C38.9964 28.9315 35.0512 33.1296 29.9933 33.1296Z" fill="white"/>
<path d="M48.362 48H53.4199V33.1296C55.3925 35.8609 58.7308 37.7829 62.676 37.7829C70.0606 37.7829 76.0796 31.6628 76.0796 23.9241C76.0796 16.3878 70.0606 10.1159 62.676 10.1159C58.6802 10.1159 55.3925 11.9874 53.4199 14.7187V10.5711H48.362V48ZM62.2713 33.2308C57.1628 33.2308 53.1164 28.9315 53.1164 23.9241C53.1164 18.9673 57.2134 14.7187 62.2713 14.7187C67.4305 14.7187 71.3251 18.9168 71.3251 23.9241C71.3251 29.0327 67.3293 33.2308 62.2713 33.2308Z" fill="white"/>
<path d="M83.5523 6.77766C85.4743 6.77766 86.9411 5.31085 86.9411 3.43941C86.9411 1.51738 85.4743 0 83.5523 0C81.6808 0 80.1635 1.51738 80.1635 3.43941C80.1635 5.31085 81.6808 6.77766 83.5523 6.77766ZM80.9727 37.3783H86.0307V10.5711H76.3746V15.1539H80.9727V37.3783Z" fill="white"/>
<path d="M104.153 38.0864C109.406 38.0864 111.629 35.0557 112.538 33.7929H112.892C112.892 36.0659 114.559 37.4298 116.731 37.4298H120.317V32.8837H119.105C118.296 32.8837 117.791 32.4796 117.791 31.6714V11.0627H112.791V14.851H112.387C111.376 13.4367 108.952 10.406 103.85 10.406C96.5764 10.406 91.4747 16.3159 91.4747 24.2462C91.4747 32.2776 96.8289 38.0864 104.153 38.0864ZM104.759 33.4898C100.163 33.4898 96.5259 29.853 96.5259 24.2967C96.5259 18.892 100.011 15.0531 104.709 15.0531C109.204 15.0531 112.942 18.4374 112.942 24.2967C112.942 29.2974 109.76 33.4898 104.759 33.4898Z" fill="white"/>
</svg>
