<svg width="152" height="42" viewBox="0 0 152 42" fill="none" xmlns="http://www.w3.org/2000/svg">
<g clip-path="url(#clip0_37_2772)">
<path d="M27.6248 38.4769C23.571 41.0161 18.6776 41.8431 14.0163 40.7767C9.35492 39.7104 5.30548 36.8377 2.75469 32.7876C1.07791 30.0858 0.132989 26.9932 0.0130411 23.8144C-0.106906 20.6356 0.60226 17.4804 2.07066 14.6596C2.20984 14.3998 2.41796 14.1835 2.67207 14.0347C2.92617 13.8858 3.2164 13.8101 3.51073 13.8159C3.7592 13.8176 4.00452 13.8717 4.23077 13.9746C4.60882 14.1907 4.89239 14.5408 5.02565 14.9558C5.15891 15.3708 5.13221 15.8208 4.95081 16.2171C3.73747 18.5237 3.14946 21.1086 3.24549 23.7138C3.34151 26.3191 4.1182 28.8535 5.49803 31.0642C6.85887 33.2564 8.7664 35.0559 11.0328 36.2853C13.2992 37.5148 15.8462 38.132 18.4232 38.076C21.0001 38.0199 23.518 37.2927 25.729 35.9659C27.94 34.6391 29.7678 32.7585 31.0323 30.5092C32.2969 28.26 32.9547 25.7196 32.9409 23.1384C32.9271 20.5571 32.2422 18.024 30.9536 15.7884C29.6651 13.5528 27.8173 11.6919 25.5923 10.3889C23.3672 9.08586 20.8417 8.38569 18.2643 8.35732C17.8278 8.33044 17.4172 8.14084 17.1133 7.82586C16.8094 7.51088 16.6344 7.09337 16.6226 6.65556C16.6504 6.22196 16.8471 5.81662 17.1703 5.5267C17.4934 5.23679 17.9173 5.08545 18.3507 5.10524C21.38 5.12519 24.3541 5.91943 26.9911 7.4127C29.7203 8.95337 32.0019 11.1791 33.6114 13.8709C35.2209 16.5627 36.1029 19.6278 36.1704 22.7646C36.238 25.9013 35.4889 29.0016 33.9968 31.7604C32.5047 34.5192 30.3211 36.8415 27.6608 38.4986L27.6248 38.4769Z" fill="#29AAE1"/>
<path d="M12.1725 4.49956H9.01153V1.334C9.01153 0.980202 8.87118 0.640893 8.62137 0.390719C8.37156 0.140545 8.03274 0 7.67946 0C7.32617 0 6.98735 0.140545 6.73754 0.390719C6.48773 0.640893 6.34739 0.980202 6.34739 1.334V4.49956H3.18643C3.00278 4.48604 2.81832 4.5106 2.64458 4.5717C2.47083 4.6328 2.31154 4.72912 2.17664 4.85465C2.04175 4.98018 1.93415 5.13222 1.86057 5.30127C1.787 5.47032 1.74902 5.65275 1.74902 5.83716C1.74902 6.02158 1.787 6.204 1.86057 6.37306C1.93415 6.54211 2.04175 6.69415 2.17664 6.81968C2.31154 6.94521 2.47083 7.04153 2.64458 7.10263C2.81832 7.16372 3.00278 7.18829 3.18643 7.17477H6.34739V10.3403C6.34739 10.6941 6.48773 11.0334 6.73754 11.2836C6.98735 11.5338 7.32617 11.6743 7.67946 11.6743C7.99044 11.6752 8.29159 11.5653 8.5291 11.3643C8.67995 11.2398 8.80144 11.0834 8.88485 10.9064C8.96825 10.7294 9.01151 10.5361 9.01153 10.3403V7.17477H12.1725C12.5098 7.14995 12.8252 6.99825 13.0554 6.75014C13.2857 6.50202 13.4136 6.17586 13.4136 5.83716C13.4136 5.49846 13.2857 5.17231 13.0554 4.92419C12.8252 4.67607 12.5098 4.52437 12.1725 4.49956Z" fill="#29AAE1"/>
<path d="M24.7081 27.5238H11.4738C11.0818 27.498 10.6955 27.6282 10.3989 27.8861C10.1022 28.144 9.91925 28.5088 9.88973 28.901C9.88636 28.9153 9.88636 28.9301 9.88973 28.9443C9.88576 29.1377 9.92068 29.33 9.99243 29.5096C10.0642 29.6892 10.1713 29.8526 10.3074 29.9899C10.5429 30.224 10.8445 30.3801 11.1714 30.437C11.2671 30.4476 11.3637 30.4476 11.4594 30.437V30.437C13.0219 30.437 14.6204 30.437 16.1613 30.437H19.8982C21.4607 30.437 23.0736 30.437 24.6649 30.437C24.7582 30.4476 24.8524 30.4476 24.9457 30.437C25.2999 30.4007 25.6307 30.2427 25.8817 29.9899C26.0079 29.8616 26.1072 29.7095 26.1739 29.5423C26.2407 29.3752 26.2735 29.1964 26.2706 29.0164C26.2674 28.9925 26.2674 28.9682 26.2706 28.9443C26.2683 28.746 26.2252 28.5502 26.144 28.3693C26.0628 28.1884 25.9452 28.0263 25.7986 27.8929C25.6519 27.7596 25.4794 27.658 25.2918 27.5945C25.1041 27.531 24.9054 27.5069 24.7081 27.5238V27.5238Z" fill="#29AAE1"/>
<path d="M11.4519 25.2092C13.0144 25.2092 14.6056 25.2092 16.1465 25.2092C17.3994 25.2092 18.645 25.2092 19.8907 25.2092C21.4532 25.2092 23.0733 25.2092 24.6574 25.2092C24.8728 25.2134 25.0868 25.1733 25.2862 25.0915C25.4856 25.0096 25.6661 24.8877 25.8166 24.7332C25.9427 24.605 26.042 24.4528 26.1088 24.2857C26.1756 24.1185 26.2084 23.9398 26.2054 23.7598C26.2062 23.559 26.1652 23.3602 26.0848 23.1762C26.0045 22.9922 25.8867 22.827 25.7389 22.6912C25.5911 22.5555 25.4167 22.4521 25.2267 22.3878C25.0368 22.3234 24.8355 22.2995 24.6358 22.3176H11.4663C11.2666 22.305 11.0665 22.3325 10.8776 22.3986C10.6888 22.4647 10.5151 22.568 10.3667 22.7024C10.2184 22.8368 10.0985 22.9997 10.014 23.1813C9.92957 23.3629 9.88229 23.5596 9.875 23.7598C9.88041 24.1402 10.0357 24.503 10.307 24.7693C10.4593 24.9148 10.6389 25.0286 10.8354 25.1041C11.032 25.1796 11.2415 25.2153 11.4519 25.2092Z" fill="#29AAE1"/>
<path d="M11.4612 19.9739C13.0236 19.9739 14.6221 19.9739 16.163 19.9739H19.9C21.4625 19.9739 23.0754 19.9739 24.6666 19.9739C24.8821 19.9781 25.0961 19.9381 25.2955 19.8562C25.4949 19.7744 25.6754 19.6524 25.8259 19.498C25.9524 19.3716 26.0521 19.2208 26.119 19.0547C26.1858 18.8886 26.2183 18.7108 26.2147 18.5318C26.2155 18.3309 26.1744 18.1322 26.0941 17.9482C26.0138 17.7641 25.896 17.599 25.7482 17.4632C25.6004 17.3274 25.426 17.2241 25.236 17.1598C25.046 17.0954 24.8448 17.0715 24.645 17.0896V17.0896C21.7649 17.0896 18.8847 17.0896 16.0046 17.0896H11.4756C11.2757 17.0759 11.0751 17.1027 10.8858 17.1685C10.6966 17.2342 10.5224 17.3374 10.3739 17.472C10.2254 17.6067 10.1054 17.7699 10.0213 17.952C9.9372 18.134 9.89059 18.3312 9.88428 18.5318C9.88778 18.9111 10.0404 19.2738 10.3091 19.5413C10.4633 19.6857 10.6444 19.7983 10.8421 19.8725C11.0398 19.9467 11.2502 19.9812 11.4612 19.9739Z" fill="#29AAE1"/>
<path d="M43.9519 30.3976C43.9519 30.7878 44.1067 31.1621 44.3822 31.438C44.6578 31.7139 45.0315 31.869 45.4211 31.869C45.8108 31.869 46.1845 31.7139 46.4601 31.438C46.7356 31.1621 46.8904 30.7878 46.8904 30.3976V25.9208C47.4112 26.3701 48.0074 26.7234 48.6514 26.9643C49.343 27.2489 50.0817 27.4011 50.8293 27.413C51.7602 27.4226 52.6829 27.2378 53.5386 26.8704C55.1783 26.1682 56.4846 24.8601 57.1857 23.218C57.5417 22.3615 57.7249 21.4429 57.7249 20.5152C57.7249 19.5875 57.5417 18.6689 57.1857 17.8124C56.4877 16.1658 55.1808 14.8533 53.5386 14.1496C52.6829 13.7822 51.7602 13.5973 50.8293 13.6069C49.9031 13.6008 48.9852 13.7818 48.1304 14.1391C47.3154 14.4833 46.5729 14.9791 45.9422 15.6001C45.3147 16.2177 44.8185 16.956 44.4833 17.7707C44.1221 18.6366 43.9379 19.5663 43.9415 20.5048L43.9519 30.3976ZM47.2343 18.9707C47.4403 18.5046 47.7299 18.0801 48.0887 17.7185C48.4462 17.3547 48.8709 17.0641 49.3392 16.8628C49.8312 16.6436 50.3637 16.5303 50.9022 16.5303C51.4407 16.5303 51.9733 16.6436 52.4653 16.8628C53.3986 17.2694 54.1434 18.0152 54.5493 18.9499C54.7605 19.4336 54.8695 19.9559 54.8695 20.4839C54.8695 21.0119 54.7605 21.5341 54.5493 22.0179C54.1469 22.955 53.401 23.702 52.4653 24.105C51.9733 24.3242 51.4407 24.4375 50.9022 24.4375C50.3637 24.4375 49.8312 24.3242 49.3392 24.105C48.4064 23.6975 47.662 22.952 47.2551 22.0179C47.0487 21.5329 46.9424 21.0111 46.9424 20.4839C46.9424 19.9567 47.0487 19.4349 47.2551 18.9499M60.2388 23.1241C60.5786 23.9444 61.0822 24.6865 61.7185 25.3051C62.3518 25.9283 63.0934 26.4304 63.9068 26.7869C64.762 27.1434 65.6792 27.3269 66.6056 27.3269C67.532 27.3269 68.4492 27.1434 69.3045 26.7869C70.9102 26.0987 72.1926 24.822 72.8891 23.218C73.2502 22.3628 73.4363 21.4437 73.4363 20.5152C73.4363 19.5867 73.2502 18.6676 72.8891 17.8124C72.1972 16.1641 70.8879 14.8529 69.242 14.16C68.388 13.7984 67.4703 13.612 66.5431 13.612C65.6159 13.612 64.6982 13.7984 63.8442 14.16C63.0308 14.5117 62.2889 15.0105 61.656 15.6314C61.0242 16.2538 60.5214 16.995 60.1763 17.8124C59.8152 18.6676 59.6291 19.5867 59.6291 20.5152C59.6291 21.4437 59.8152 22.3628 60.1763 23.218M62.8647 18.9499C63.2707 18.0152 64.0155 17.2694 64.9488 16.8628C65.435 16.6564 65.9577 16.5501 66.4858 16.5501C67.0139 16.5501 67.5366 16.6564 68.0228 16.8628C68.9544 17.272 69.6983 18.0169 70.1069 18.9499C70.3132 19.4349 70.4196 19.9567 70.4196 20.4839C70.4196 21.0111 70.3132 21.5329 70.1069 22.0179C69.7 22.952 68.9555 23.6975 68.0228 24.105C67.5308 24.3242 66.9983 24.4375 66.4597 24.4375C65.9212 24.4375 65.3887 24.3242 64.8967 24.105C63.9634 23.6984 63.2186 22.9526 62.8126 22.0179C62.6015 21.5341 62.4925 21.0119 62.4925 20.4839C62.4925 19.9559 62.6015 19.4336 62.8126 18.9499M75.0148 30.4289C75.0148 30.8191 75.1696 31.1934 75.4452 31.4693C75.7207 31.7452 76.0944 31.9003 76.4841 31.9003C76.8738 31.9003 77.2475 31.7452 77.523 31.4693C77.7986 31.1934 77.9534 30.8191 77.9534 30.4289V25.9208C79.0855 26.8593 80.5059 27.3789 81.9756 27.3921C82.9032 27.4018 83.8225 27.217 84.6745 26.8495C85.9179 26.3164 86.9777 25.4296 87.7225 24.299C88.4672 23.1683 88.8643 21.8436 88.8643 20.4891C88.8643 19.1346 88.4672 17.8099 87.7225 16.6792C86.9777 15.5486 85.9179 14.6618 84.6745 14.1287C83.8225 13.7612 82.9032 13.5764 81.9756 13.5861C81.0493 13.5788 80.1311 13.7598 79.2767 14.1183C78.4617 14.4625 77.7192 14.9582 77.0885 15.5792C76.4427 16.2221 75.9327 16.9886 75.589 17.833C75.2452 18.6774 75.0748 19.5825 75.0878 20.4943L75.0148 30.4289ZM78.266 19.002C78.6728 18.0679 79.4173 17.3224 80.35 16.915C80.8331 16.7035 81.3546 16.5943 81.8818 16.5943C82.409 16.5943 82.9305 16.7035 83.4136 16.915C83.8851 17.116 84.3133 17.4066 84.6745 17.7707C85.0295 18.1332 85.3155 18.5576 85.5185 19.0229C85.7249 19.5079 85.8312 20.0297 85.8312 20.5569C85.8312 21.0841 85.7249 21.6059 85.5185 22.0909C85.1116 23.0251 84.3672 23.7706 83.4344 24.178C82.9424 24.3973 82.4099 24.5105 81.8714 24.5105C81.3329 24.5105 80.8004 24.3973 80.3083 24.178C79.8414 23.9742 79.4172 23.6839 79.0579 23.3223C78.5032 22.7685 78.1264 22.0613 77.976 21.2915C77.8256 20.5217 77.9084 19.7244 78.2139 19.002" fill="#29AAE1"/>
<path d="M99.5539 20.2133C98.6282 19.7605 97.642 19.4441 96.6258 19.2741C95.9362 19.1486 95.2595 18.96 94.6043 18.7106C94.2376 18.5926 93.9145 18.3672 93.6769 18.0636C93.5214 17.8245 93.4382 17.5455 93.4372 17.2601C93.4462 17.0301 93.5233 16.8081 93.6588 16.6222C93.7943 16.4364 93.982 16.2951 94.1979 16.2165C94.7729 15.9548 95.4006 15.8298 96.0319 15.8513C96.5912 15.8422 97.149 15.9125 97.6887 16.06C98.1911 16.2276 98.6477 16.5098 99.0225 16.8844C99.2761 17.1229 99.5957 17.2793 99.9395 17.3331C100.1 17.3701 100.266 17.3734 100.427 17.3429C100.588 17.3124 100.742 17.2486 100.877 17.1557C101 17.0754 101.103 16.9676 101.177 16.8408C101.251 16.714 101.295 16.5718 101.305 16.4252C101.306 16.1172 101.186 15.8209 100.971 15.6008C100.439 14.959 99.7496 14.4664 98.9704 14.1712C98.0528 13.8056 97.0713 13.6281 96.084 13.6494C95.2606 13.6427 94.4424 13.7805 93.6665 14.0564C92.9369 14.2983 92.2807 14.7221 91.7596 15.2878C91.2585 15.8649 90.9941 16.6105 91.0197 17.3749C91.0174 17.8366 91.1171 18.293 91.3117 18.7116C91.5063 19.1301 91.7909 19.5004 92.1451 19.7959C93.205 20.5896 94.4495 21.0997 95.761 21.2777C96.7 21.3858 97.6055 21.6917 98.4181 22.1752C98.6352 22.3114 98.8141 22.5007 98.9381 22.7252C99.062 22.9498 99.127 23.2022 99.1267 23.4587C99.1111 23.7107 99.031 23.9544 98.8941 24.1664C98.7572 24.3784 98.5682 24.5516 98.3452 24.6692C97.6722 25.0226 96.9155 25.185 96.1569 25.1388C95.4412 25.1531 94.7307 25.0144 94.0729 24.7319C93.5721 24.5349 93.1152 24.2405 92.7286 23.8657C92.5115 23.6252 92.216 23.4699 91.895 23.4274C91.7194 23.4152 91.5431 23.4384 91.3766 23.4958C91.2101 23.5532 91.0569 23.6435 90.9259 23.7614C90.7914 23.8584 90.6791 23.9831 90.5964 24.127C90.5138 24.271 90.4627 24.4309 90.4466 24.5962C90.4227 24.7591 90.4377 24.9253 90.4902 25.0812C90.5427 25.2372 90.6313 25.3785 90.7488 25.4936C91.4052 26.1076 92.1876 26.5706 93.0413 26.8503C94.0693 27.2099 95.1514 27.3899 96.2403 27.3825C97.2449 27.4136 98.2441 27.2248 99.1684 26.8294C99.902 26.5084 100.525 25.9786 100.961 25.3058C101.371 24.6885 101.582 23.96 101.565 23.2187C101.581 22.6078 101.418 22.0057 101.096 21.4864C100.713 20.9065 100.18 20.4413 99.5539 20.1403" fill="#29AAE1"/>
<path d="M110.267 24.7627H109.433C109.175 24.7627 108.919 24.7023 108.688 24.5864C108.456 24.4705 108.255 24.3022 108.1 24.0948C107.726 23.6247 107.534 23.0358 107.558 22.4356V16.3204H109.642C109.795 16.3314 109.949 16.3111 110.094 16.2609C110.239 16.2107 110.372 16.1315 110.486 16.0282C110.589 15.9352 110.67 15.8206 110.724 15.6925C110.778 15.5645 110.804 15.4262 110.799 15.2873C110.805 15.1405 110.781 14.994 110.727 14.8573C110.673 14.7207 110.591 14.5969 110.486 14.4942C110.372 14.3909 110.239 14.3118 110.094 14.2616C109.949 14.2113 109.795 14.1911 109.642 14.202H107.558V10.6331C107.569 10.3054 107.451 9.98661 107.228 9.74615C107.005 9.50569 106.697 9.36312 106.37 9.34954C106.208 9.34254 106.047 9.3675 105.895 9.423C105.743 9.4785 105.604 9.56344 105.485 9.67297C105.366 9.7825 105.27 9.91446 105.201 10.0613C105.133 10.2081 105.095 10.367 105.088 10.5287C105.078 10.5627 105.078 10.5991 105.088 10.6331V14.202H103.942C103.637 14.1917 103.34 14.2959 103.108 14.4942C103.002 14.596 102.918 14.7193 102.862 14.856C102.806 14.9928 102.78 15.1398 102.785 15.2873C102.782 15.4269 102.809 15.5655 102.865 15.6935C102.921 15.8214 103.004 15.9357 103.108 16.0282C103.337 16.2312 103.637 16.3361 103.942 16.3204H105.088V22.4356C105.076 23.2876 105.273 24.1296 105.661 24.8879C106.016 25.5902 106.552 26.1847 107.214 26.6098C107.879 27.0271 108.649 27.2444 109.433 27.2359H109.882C110.259 27.2529 110.63 27.1304 110.924 26.8915C111.054 26.7841 111.158 26.6485 111.229 26.4948C111.299 26.3412 111.334 26.1735 111.33 26.0045C111.344 25.6763 111.232 25.3551 111.017 25.1071C110.921 25.0003 110.804 24.9145 110.673 24.8553C110.542 24.796 110.4 24.7645 110.257 24.7627" fill="#29AAE1"/>
<path d="M121.093 24.5019C120.412 24.8967 119.639 25.1047 118.852 25.1047C118.066 25.1047 117.293 24.8967 116.612 24.5019C115.942 24.1045 115.394 23.5305 115.028 22.8427C114.643 22.1107 114.442 21.2959 114.442 20.4686C114.442 19.6413 114.643 18.8264 115.028 18.0945C115.4 17.4109 115.947 16.8384 116.612 16.4353C117.293 16.0404 118.066 15.8325 118.852 15.8325C119.639 15.8325 120.412 16.0404 121.093 16.4353C121.752 16.8408 122.288 17.4179 122.645 18.105C123.02 18.84 123.216 19.6536 123.216 20.479C123.216 21.3044 123.02 22.1181 122.645 22.8531C122.284 23.5319 121.748 24.1012 121.093 24.5019M122.26 14.5047C121.484 14.0443 120.625 13.7427 119.732 13.6173C118.838 13.492 117.929 13.5454 117.057 13.7745C116.185 14.0035 115.366 14.4037 114.65 14.9518C113.933 15.4999 113.332 16.1851 112.882 16.9675C112.265 18.0356 111.948 19.2507 111.965 20.4842C111.942 21.7035 112.225 22.9089 112.788 23.9905C113.315 24.9917 114.094 25.8372 115.049 26.4429C116.025 27.034 117.144 27.3465 118.284 27.3465C119.425 27.3465 120.544 27.034 121.52 26.4429C122.104 26.077 122.625 25.6189 123.062 25.0863V26.0046C123.046 26.1794 123.067 26.3555 123.123 26.5218C123.179 26.6882 123.269 26.841 123.387 26.9706C123.505 27.1002 123.649 27.2037 123.809 27.2745C123.969 27.3454 124.143 27.382 124.318 27.382C124.493 27.382 124.666 27.3454 124.827 27.2745C124.987 27.2037 125.131 27.1002 125.249 26.9706C125.367 26.841 125.457 26.6882 125.513 26.5218C125.569 26.3555 125.589 26.1794 125.574 26.0046V20.4842C125.594 19.2562 125.284 18.0452 124.677 16.9779C124.1 15.9569 123.267 15.1044 122.26 14.5047" fill="#29AAE1"/>
<path d="M136.653 14.1606C135.814 13.786 134.904 13.5973 133.985 13.6076C132.772 13.5792 131.574 13.8784 130.515 14.4737C129.508 15.0632 128.685 15.9236 128.14 16.9573C127.549 18.0525 127.251 19.2819 127.275 20.5263C127.254 21.7484 127.556 22.9544 128.15 24.0221C128.737 25.0274 129.583 25.8563 130.599 26.4223C131.672 27.0414 132.893 27.3587 134.131 27.3406C135.771 27.3922 137.365 26.7963 138.57 25.6814C138.679 25.5838 138.762 25.4621 138.815 25.3262C138.867 25.1902 138.887 25.0438 138.873 24.8987C138.85 24.7438 138.796 24.5949 138.716 24.4606C138.636 24.3262 138.529 24.2092 138.404 24.116C138.303 24.0283 138.185 23.9626 138.058 23.9231C137.93 23.8836 137.796 23.8711 137.664 23.8865C137.361 23.926 137.077 24.057 136.851 24.2621C136.499 24.553 136.096 24.7759 135.663 24.9196C135.17 25.067 134.657 25.1374 134.142 25.1283C133.336 25.1495 132.54 24.9395 131.849 24.523C131.195 24.1287 130.662 23.5619 130.307 22.8847C129.92 22.1489 129.726 21.3265 129.744 20.4949C129.725 19.649 129.911 18.811 130.286 18.0531C130.63 17.3775 131.157 16.8132 131.808 16.4251C132.48 16.0298 133.248 15.8276 134.027 15.8407C134.592 15.8294 135.153 15.9389 135.672 16.1621C136.192 16.3852 136.657 16.7168 137.039 17.1347C137.247 17.3515 137.516 17.5005 137.81 17.5626C137.94 17.5946 138.076 17.5971 138.208 17.57C138.339 17.5429 138.463 17.4869 138.57 17.4061C138.838 17.2342 139.034 16.9709 139.123 16.6651C139.148 16.5193 139.138 16.3696 139.095 16.2281C139.052 16.0867 138.975 15.9575 138.873 15.8512C138.273 15.1468 137.53 14.5777 136.695 14.1815" fill="#29AAE1"/>
<path d="M151.2 25.4514L146.417 19.5658L150.939 15.496C151.169 15.2979 151.312 15.0164 151.335 14.7133C151.33 14.412 151.217 14.1227 151.016 13.8985C150.815 13.6742 150.54 13.53 150.241 13.4924C150.087 13.4864 149.934 13.512 149.791 13.5677C149.647 13.6233 149.517 13.7078 149.407 13.8159L143.405 19.1901V9.11994C143.405 8.79889 143.278 8.49099 143.051 8.26397C142.825 8.03696 142.517 7.90942 142.197 7.90942C141.876 7.90942 141.569 8.03696 141.342 8.26397C141.115 8.49099 140.988 8.79889 140.988 9.11994V26.0358C140.988 26.3568 141.115 26.6647 141.342 26.8918C141.569 27.1188 141.876 27.2463 142.197 27.2463C142.517 27.2463 142.825 27.1188 143.051 26.8918C143.278 26.6647 143.405 26.3568 143.405 26.0358V22.2477L144.635 21.1311L149.355 26.9645C149.452 27.0878 149.573 27.1895 149.711 27.2632C149.85 27.3369 150.002 27.3809 150.158 27.3924C150.313 27.407 150.47 27.3896 150.619 27.3411C150.768 27.2926 150.905 27.2142 151.023 27.1106C151.139 27.018 151.236 26.9028 151.308 26.772C151.38 26.6412 151.424 26.4973 151.439 26.3489C151.454 26.1961 151.439 26.0419 151.394 25.8951C151.349 25.7482 151.276 25.6117 151.179 25.4932" fill="#29AAE1"/>
</g>
<defs>
<clipPath id="clip0_37_2772">
<rect width="151.445" height="41.2312" fill="white"/>
</clipPath>
</defs>
</svg>
